<mxfile host="app.diagrams.net" agent="Mozilla/5.0 (Windows NT 10.0; Win64; x64) AppleWebKit/537.36 (KHTML, like Gecko) Chrome/131.0.0.0 Safari/537.36" version="25.0.3">
  <diagram name="Page-1" id="LmCU334dYWWbO-0TG0y7">
    <mxGraphModel dx="2127" dy="700" grid="1" gridSize="10" guides="1" tooltips="1" connect="1" arrows="1" fold="1" page="1" pageScale="1" pageWidth="827" pageHeight="1169" math="0" shadow="0">
      <root>
        <mxCell id="0" />
        <mxCell id="1" parent="0" />
        <mxCell id="RyVPKM4wa7BVWxK_GSsp-2" value="" style="rounded=0;whiteSpace=wrap;html=1;" parent="1" vertex="1">
          <mxGeometry x="200" y="165" width="770" height="765" as="geometry" />
        </mxCell>
        <mxCell id="RyVPKM4wa7BVWxK_GSsp-6" value="Enter Game" style="ellipse;whiteSpace=wrap;html=1;" parent="1" vertex="1">
          <mxGeometry x="440" y="350" width="110" height="70" as="geometry" />
        </mxCell>
        <mxCell id="RyVPKM4wa7BVWxK_GSsp-9" value="In-Game Menu" style="ellipse;whiteSpace=wrap;html=1;" parent="1" vertex="1">
          <mxGeometry x="610" y="420" width="110" height="70" as="geometry" />
        </mxCell>
        <mxCell id="RyVPKM4wa7BVWxK_GSsp-10" value="Create New Game&lt;span style=&quot;color: rgba(0, 0, 0, 0); font-family: monospace; font-size: 0px; text-align: start; text-wrap-mode: nowrap;&quot;&gt;%3CmxGraphModel%3E%3Croot%3E%3CmxCell%20id%3D%220%22%2F%3E%3CmxCell%20id%3D%221%22%20parent%3D%220%22%2F%3E%3CmxCell%20id%3D%222%22%20value%3D%22Enter%20Game%22%20style%3D%22ellipse%3BwhiteSpace%3Dwrap%3Bhtml%3D1%3B%22%20vertex%3D%221%22%20parent%3D%221%22%3E%3CmxGeometry%20x%3D%22240%22%20y%3D%22190%22%20width%3D%22110%22%20height%3D%2270%22%20as%3D%22geometry%22%2F%3E%3C%2FmxCell%3E%3C%2Froot%3E%3C%2FmxGraphModel%3E&lt;/span&gt;" style="ellipse;whiteSpace=wrap;html=1;" parent="1" vertex="1">
          <mxGeometry x="380" y="240" width="110" height="70" as="geometry" />
        </mxCell>
        <mxCell id="RyVPKM4wa7BVWxK_GSsp-11" value="Load Data" style="ellipse;whiteSpace=wrap;html=1;" parent="1" vertex="1">
          <mxGeometry x="590" y="225" width="110" height="70" as="geometry" />
        </mxCell>
        <mxCell id="RyVPKM4wa7BVWxK_GSsp-12" value="Manage Configuration" style="ellipse;whiteSpace=wrap;html=1;" parent="1" vertex="1">
          <mxGeometry x="340" y="620" width="110" height="70" as="geometry" />
        </mxCell>
        <mxCell id="RyVPKM4wa7BVWxK_GSsp-13" value="Control Using Controller" style="ellipse;whiteSpace=wrap;html=1;" parent="1" vertex="1">
          <mxGeometry x="470" y="750" width="110" height="70" as="geometry" />
        </mxCell>
        <mxCell id="RyVPKM4wa7BVWxK_GSsp-14" value="Control Using Keyboard" style="ellipse;whiteSpace=wrap;html=1;" parent="1" vertex="1">
          <mxGeometry x="220" y="750" width="110" height="70" as="geometry" />
        </mxCell>
        <mxCell id="RyVPKM4wa7BVWxK_GSsp-15" value="World Interaction" style="ellipse;whiteSpace=wrap;html=1;" parent="1" vertex="1">
          <mxGeometry x="340" y="490" width="110" height="70" as="geometry" />
        </mxCell>
        <mxCell id="RyVPKM4wa7BVWxK_GSsp-16" value="Turn Base Battle" style="ellipse;whiteSpace=wrap;html=1;" parent="1" vertex="1">
          <mxGeometry x="600" y="570" width="110" height="70" as="geometry" />
        </mxCell>
        <mxCell id="RyVPKM4wa7BVWxK_GSsp-17" value="Enemy Move" style="ellipse;whiteSpace=wrap;html=1;" parent="1" vertex="1">
          <mxGeometry x="740" y="670" width="110" height="70" as="geometry" />
        </mxCell>
        <mxCell id="RyVPKM4wa7BVWxK_GSsp-18" value="Player Move" style="ellipse;whiteSpace=wrap;html=1;" parent="1" vertex="1">
          <mxGeometry x="600" y="740" width="110" height="70" as="geometry" />
        </mxCell>
        <mxCell id="RyVPKM4wa7BVWxK_GSsp-19" value="Patch Game" style="ellipse;whiteSpace=wrap;html=1;" parent="1" vertex="1">
          <mxGeometry x="740" y="295" width="110" height="70" as="geometry" />
        </mxCell>
        <mxCell id="RyVPKM4wa7BVWxK_GSsp-20" value="Save Data" style="ellipse;whiteSpace=wrap;html=1;" parent="1" vertex="1">
          <mxGeometry x="470" y="512.5" width="110" height="70" as="geometry" />
        </mxCell>
        <mxCell id="RyVPKM4wa7BVWxK_GSsp-21" value="Observe Inventory" style="ellipse;whiteSpace=wrap;html=1;" parent="1" vertex="1">
          <mxGeometry x="750" y="512.5" width="110" height="70" as="geometry" />
        </mxCell>
        <mxCell id="RyVPKM4wa7BVWxK_GSsp-22" value="Player Stats" style="ellipse;whiteSpace=wrap;html=1;" parent="1" vertex="1">
          <mxGeometry x="827" y="420" width="110" height="70" as="geometry" />
        </mxCell>
        <mxCell id="RyVPKM4wa7BVWxK_GSsp-30" value="Player" style="shape=umlActor;verticalLabelPosition=bottom;verticalAlign=top;html=1;" parent="1" vertex="1">
          <mxGeometry x="60" y="420" width="50" height="90" as="geometry" />
        </mxCell>
        <mxCell id="RyVPKM4wa7BVWxK_GSsp-31" value="Developer" style="shape=umlActor;verticalLabelPosition=bottom;verticalAlign=top;html=1;" parent="1" vertex="1">
          <mxGeometry x="1040" y="285" width="50" height="90" as="geometry" />
        </mxCell>
        <mxCell id="RyVPKM4wa7BVWxK_GSsp-32" value="System" style="shape=umlActor;verticalLabelPosition=bottom;verticalAlign=top;html=1;" parent="1" vertex="1">
          <mxGeometry x="1040" y="650" width="50" height="90" as="geometry" />
        </mxCell>
        <mxCell id="RyVPKM4wa7BVWxK_GSsp-38" value="&amp;lt;&amp;lt;extends&amp;gt;&amp;gt;" style="endArrow=open;startArrow=none;endFill=0;startFill=0;endSize=8;html=1;verticalAlign=bottom;dashed=1;labelBackgroundColor=none;rounded=0;exitX=0;exitY=1;exitDx=0;exitDy=0;entryX=1;entryY=0;entryDx=0;entryDy=0;" parent="1" source="RyVPKM4wa7BVWxK_GSsp-11" target="RyVPKM4wa7BVWxK_GSsp-6" edge="1">
          <mxGeometry width="160" relative="1" as="geometry">
            <mxPoint x="460" y="415" as="sourcePoint" />
            <mxPoint x="440" y="295" as="targetPoint" />
          </mxGeometry>
        </mxCell>
        <mxCell id="RyVPKM4wa7BVWxK_GSsp-39" value="" style="endArrow=none;html=1;rounded=0;entryX=0;entryY=0.5;entryDx=0;entryDy=0;" parent="1" target="RyVPKM4wa7BVWxK_GSsp-9" edge="1">
          <mxGeometry width="50" height="50" relative="1" as="geometry">
            <mxPoint x="120" y="455" as="sourcePoint" />
            <mxPoint x="350" y="454.38" as="targetPoint" />
          </mxGeometry>
        </mxCell>
        <mxCell id="RyVPKM4wa7BVWxK_GSsp-3" value="Tester" style="shape=umlActor;verticalLabelPosition=bottom;verticalAlign=top;html=1;" parent="1" vertex="1">
          <mxGeometry x="-60" y="820" width="50" height="90" as="geometry" />
        </mxCell>
        <mxCell id="RyVPKM4wa7BVWxK_GSsp-41" value="" style="endArrow=none;html=1;rounded=0;exitX=1;exitY=0.5;exitDx=0;exitDy=0;" parent="1" source="RyVPKM4wa7BVWxK_GSsp-19" target="RyVPKM4wa7BVWxK_GSsp-31" edge="1">
          <mxGeometry width="50" height="50" relative="1" as="geometry">
            <mxPoint x="120" y="464" as="sourcePoint" />
            <mxPoint x="620" y="465" as="targetPoint" />
          </mxGeometry>
        </mxCell>
        <mxCell id="RyVPKM4wa7BVWxK_GSsp-42" value="&amp;lt;&amp;lt;include&amp;gt;&amp;gt;" style="endArrow=open;startArrow=none;endFill=0;startFill=0;endSize=8;html=1;verticalAlign=bottom;dashed=1;labelBackgroundColor=none;rounded=0;exitX=1;exitY=0;exitDx=0;exitDy=0;entryX=0;entryY=0.5;entryDx=0;entryDy=0;" parent="1" target="RyVPKM4wa7BVWxK_GSsp-22" edge="1">
          <mxGeometry width="160" relative="1" as="geometry">
            <mxPoint x="720" y="455" as="sourcePoint" />
            <mxPoint x="822" y="390" as="targetPoint" />
          </mxGeometry>
        </mxCell>
        <mxCell id="RyVPKM4wa7BVWxK_GSsp-43" value="&amp;lt;&amp;lt;include&amp;gt;&amp;gt;" style="endArrow=open;startArrow=none;endFill=0;startFill=0;endSize=8;html=1;verticalAlign=bottom;dashed=1;labelBackgroundColor=none;rounded=0;exitX=1;exitY=1;exitDx=0;exitDy=0;entryX=0;entryY=0;entryDx=0;entryDy=0;" parent="1" source="RyVPKM4wa7BVWxK_GSsp-9" target="RyVPKM4wa7BVWxK_GSsp-21" edge="1">
          <mxGeometry width="160" relative="1" as="geometry">
            <mxPoint x="710" y="480" as="sourcePoint" />
            <mxPoint x="817" y="480" as="targetPoint" />
          </mxGeometry>
        </mxCell>
        <mxCell id="RyVPKM4wa7BVWxK_GSsp-44" value="&amp;lt;&amp;lt;include&amp;gt;&amp;gt;" style="endArrow=open;startArrow=none;endFill=0;startFill=0;endSize=8;html=1;verticalAlign=bottom;dashed=1;labelBackgroundColor=none;rounded=0;exitX=0;exitY=1;exitDx=0;exitDy=0;entryX=1;entryY=0;entryDx=0;entryDy=0;" parent="1" source="RyVPKM4wa7BVWxK_GSsp-9" target="RyVPKM4wa7BVWxK_GSsp-20" edge="1">
          <mxGeometry width="160" relative="1" as="geometry">
            <mxPoint x="714" y="490" as="sourcePoint" />
            <mxPoint x="776" y="570" as="targetPoint" />
          </mxGeometry>
        </mxCell>
        <mxCell id="RyVPKM4wa7BVWxK_GSsp-45" value="" style="endArrow=none;html=1;rounded=0;exitX=1;exitY=0.5;exitDx=0;exitDy=0;" parent="1" source="RyVPKM4wa7BVWxK_GSsp-17" edge="1">
          <mxGeometry width="50" height="50" relative="1" as="geometry">
            <mxPoint x="850" y="700" as="sourcePoint" />
            <mxPoint x="1040" y="705" as="targetPoint" />
          </mxGeometry>
        </mxCell>
        <mxCell id="RyVPKM4wa7BVWxK_GSsp-46" value="Report Bug" style="ellipse;whiteSpace=wrap;html=1;" parent="1" vertex="1">
          <mxGeometry x="310" y="830" width="110" height="70" as="geometry" />
        </mxCell>
        <mxCell id="RyVPKM4wa7BVWxK_GSsp-47" value="" style="endArrow=none;html=1;rounded=0;" parent="1" edge="1">
          <mxGeometry width="50" height="50" relative="1" as="geometry">
            <mxPoint y="864" as="sourcePoint" />
            <mxPoint x="310" y="864.47" as="targetPoint" />
          </mxGeometry>
        </mxCell>
        <mxCell id="RyVPKM4wa7BVWxK_GSsp-48" value="" style="endArrow=none;html=1;rounded=0;" parent="1" edge="1">
          <mxGeometry width="50" height="50" relative="1" as="geometry">
            <mxPoint x="120" y="524" as="sourcePoint" />
            <mxPoint x="340" y="524.47" as="targetPoint" />
          </mxGeometry>
        </mxCell>
        <mxCell id="RyVPKM4wa7BVWxK_GSsp-49" value="" style="endArrow=none;html=1;rounded=0;entryX=0;entryY=0.5;entryDx=0;entryDy=0;" parent="1" target="RyVPKM4wa7BVWxK_GSsp-12" edge="1">
          <mxGeometry width="50" height="50" relative="1" as="geometry">
            <mxPoint x="70" y="530" as="sourcePoint" />
            <mxPoint x="350" y="634.94" as="targetPoint" />
            <Array as="points">
              <mxPoint x="70" y="655" />
            </Array>
          </mxGeometry>
        </mxCell>
        <mxCell id="RyVPKM4wa7BVWxK_GSsp-52" value="" style="endArrow=none;html=1;rounded=0;entryX=0;entryY=0.5;entryDx=0;entryDy=0;" parent="1" target="RyVPKM4wa7BVWxK_GSsp-16" edge="1">
          <mxGeometry width="50" height="50" relative="1" as="geometry">
            <mxPoint x="100" y="534" as="sourcePoint" />
            <mxPoint x="350" y="534.47" as="targetPoint" />
            <Array as="points">
              <mxPoint x="100" y="605" />
            </Array>
          </mxGeometry>
        </mxCell>
        <mxCell id="RyVPKM4wa7BVWxK_GSsp-53" value="&amp;lt;&amp;lt;include&amp;gt;&amp;gt;" style="endArrow=open;startArrow=none;endFill=0;startFill=0;endSize=8;html=1;verticalAlign=bottom;dashed=1;labelBackgroundColor=none;rounded=0;exitX=0.5;exitY=1;exitDx=0;exitDy=0;" parent="1" source="RyVPKM4wa7BVWxK_GSsp-16" target="RyVPKM4wa7BVWxK_GSsp-18" edge="1">
          <mxGeometry width="160" relative="1" as="geometry">
            <mxPoint x="610" y="737.5" as="sourcePoint" />
            <mxPoint x="712" y="672.5" as="targetPoint" />
          </mxGeometry>
        </mxCell>
        <mxCell id="RyVPKM4wa7BVWxK_GSsp-54" value="&amp;lt;&amp;lt;extends&amp;gt;&amp;gt;" style="endArrow=open;startArrow=none;endFill=0;startFill=0;endSize=8;html=1;verticalAlign=bottom;dashed=1;labelBackgroundColor=none;rounded=0;exitX=1;exitY=1;exitDx=0;exitDy=0;entryX=0;entryY=0;entryDx=0;entryDy=0;" parent="1" source="RyVPKM4wa7BVWxK_GSsp-16" target="RyVPKM4wa7BVWxK_GSsp-17" edge="1">
          <mxGeometry width="160" relative="1" as="geometry">
            <mxPoint x="414" y="690" as="sourcePoint" />
            <mxPoint x="465" y="740" as="targetPoint" />
          </mxGeometry>
        </mxCell>
        <mxCell id="kNINecF19Qc3NtV65iLC-1" value="" style="endArrow=block;endSize=16;endFill=0;html=1;rounded=0;entryX=0.5;entryY=1;entryDx=0;entryDy=0;exitX=1;exitY=0.5;exitDx=0;exitDy=0;" edge="1" parent="1" source="RyVPKM4wa7BVWxK_GSsp-14" target="RyVPKM4wa7BVWxK_GSsp-12">
          <mxGeometry width="160" relative="1" as="geometry">
            <mxPoint x="305" y="790" as="sourcePoint" />
            <mxPoint x="365" y="690" as="targetPoint" />
            <Array as="points">
              <mxPoint x="395" y="785" />
            </Array>
          </mxGeometry>
        </mxCell>
        <mxCell id="kNINecF19Qc3NtV65iLC-6" value="" style="endArrow=none;html=1;rounded=0;entryX=0;entryY=0.5;entryDx=0;entryDy=0;" edge="1" parent="1" target="RyVPKM4wa7BVWxK_GSsp-13">
          <mxGeometry width="50" height="50" relative="1" as="geometry">
            <mxPoint x="390" y="785" as="sourcePoint" />
            <mxPoint x="460" y="750" as="targetPoint" />
          </mxGeometry>
        </mxCell>
        <mxCell id="kNINecF19Qc3NtV65iLC-7" value="" style="endArrow=block;endSize=16;endFill=0;html=1;rounded=0;" edge="1" parent="1">
          <mxGeometry width="160" relative="1" as="geometry">
            <mxPoint x="-40" y="790" as="sourcePoint" />
            <mxPoint x="50" y="460" as="targetPoint" />
            <Array as="points">
              <mxPoint x="-40" y="460" />
            </Array>
          </mxGeometry>
        </mxCell>
        <mxCell id="kNINecF19Qc3NtV65iLC-12" value="New Player" style="shape=umlActor;verticalLabelPosition=bottom;verticalAlign=top;html=1;" vertex="1" parent="1">
          <mxGeometry x="-50" y="275" width="50" height="90" as="geometry" />
        </mxCell>
        <mxCell id="kNINecF19Qc3NtV65iLC-13" value="" style="endArrow=none;html=1;rounded=0;" edge="1" parent="1">
          <mxGeometry width="50" height="50" relative="1" as="geometry">
            <mxPoint x="-40" y="460" as="sourcePoint" />
            <mxPoint x="-40" y="390" as="targetPoint" />
            <Array as="points">
              <mxPoint x="-40" y="460" />
              <mxPoint x="-40" y="420" />
            </Array>
          </mxGeometry>
        </mxCell>
        <mxCell id="kNINecF19Qc3NtV65iLC-15" value="" style="endArrow=none;html=1;rounded=0;entryX=0;entryY=0.5;entryDx=0;entryDy=0;" edge="1" parent="1" target="RyVPKM4wa7BVWxK_GSsp-6">
          <mxGeometry width="50" height="50" relative="1" as="geometry">
            <mxPoint x="80" y="410" as="sourcePoint" />
            <mxPoint x="620" y="465" as="targetPoint" />
            <Array as="points">
              <mxPoint x="80" y="385" />
            </Array>
          </mxGeometry>
        </mxCell>
        <mxCell id="kNINecF19Qc3NtV65iLC-16" value="" style="endArrow=none;html=1;rounded=0;entryX=0;entryY=0.5;entryDx=0;entryDy=0;" edge="1" parent="1" target="RyVPKM4wa7BVWxK_GSsp-10">
          <mxGeometry width="50" height="50" relative="1" as="geometry">
            <mxPoint x="10" y="275" as="sourcePoint" />
            <mxPoint x="330" y="270" as="targetPoint" />
          </mxGeometry>
        </mxCell>
      </root>
    </mxGraphModel>
  </diagram>
</mxfile>
